<?xml version="1.0" encoding="UTF-8"?>
<svg version="1.1" xmlns="http://www.w3.org/2000/svg" width="220" height="220">
<path d="M0 0 C72.6 0 145.2 0 220 0 C220 72.6 220 145.2 220 220 C147.4 220 74.8 220 0 220 C0 147.4 0 74.8 0 0 Z " fill="#FFFFFF" transform="translate(0,0)"/>
<path d="M0 0 C10.23 0 20.46 0 31 0 C31 3.63 31 7.26 31 11 C34.63 11 38.26 11 42 11 C42 7.37 42 3.74 42 0 C45.3 0 48.6 0 52 0 C52 3.63 52 7.26 52 11 C58.93 11 65.86 11 73 11 C73 17.93 73 24.86 73 32 C69.7 32 66.4 32 63 32 C63 35.3 63 38.6 63 42 C69.93 42 76.86 42 84 42 C84 38.7 84 35.4 84 32 C90.93 32 97.86 32 105 32 C105 25.07 105 18.14 105 11 C111.93 11 118.86 11 126 11 C126 38.72 126 66.44 126 95 C80.79 95 35.58 95 -11 95 C-11 77.51 -11 60.02 -11 42 C-7.37 42 -3.74 42 0 42 C0 52.56 0 63.12 0 74 C3.3 74 6.6 74 10 74 C10 60.14 10 46.28 10 32 C16.93 32 23.86 32 31 32 C31 28.37 31 24.74 31 21 C27.7 21 24.4 21 21 21 C21 17.7 21 14.4 21 11 C14.07 11 7.14 11 0 11 C0 7.37 0 3.74 0 0 Z " fill="#FFFFFF" transform="translate(94,125)"/>
<path d="M0 0 C24.09 0 48.18 0 73 0 C73 24.42 73 48.84 73 74 C48.91 74 24.82 74 0 74 C0 49.58 0 25.16 0 0 Z " fill="#FFFFFF" transform="translate(0,146)"/>
<path d="M0 0 C24.42 0 48.84 0 74 0 C74 24.09 74 48.18 74 73 C49.58 73 25.16 73 0 73 C0 48.91 0 24.82 0 0 Z " fill="#FFFFFF" transform="translate(146,0)"/>
<path d="M0 0 C24.09 0 48.18 0 73 0 C73 24.09 73 48.18 73 73 C48.91 73 24.82 73 0 73 C0 48.91 0 24.82 0 0 Z " fill="#FFFFFF" transform="translate(0,0)"/>
<path d="M0 0 C6.93 0 13.86 0 21 0 C21 6.93 21 13.86 21 21 C24.3 21 27.6 21 31 21 C31 24.63 31 28.26 31 32 C34.63 32 38.26 32 42 32 C42 28.37 42 24.74 42 21 C48.93 21 55.86 21 63 21 C63 24.63 63 28.26 63 32 C69.93 32 76.86 32 84 32 C84 35.3 84 38.6 84 42 C87.3 42 90.6 42 94 42 C94 45.63 94 49.26 94 53 C87.07 53 80.14 53 73 53 C73 66.86 73 80.72 73 95 C69.7 95 66.4 95 63 95 C63 84.44 63 73.88 63 63 C59.37 63 55.74 63 52 63 C52 80.49 52 97.98 52 116 C48.7 116 45.4 116 42 116 C42 91.58 42 67.16 42 42 C17.91 42 -6.18 42 -31 42 C-31 38.7 -31 35.4 -31 32 C-27.7 32 -24.4 32 -21 32 C-21 28.37 -21 24.74 -21 21 C-17.7 21 -14.4 21 -11 21 C-11 17.7 -11 14.4 -11 11 C-7.37 11 -3.74 11 0 11 C0 7.37 0 3.74 0 0 Z " fill="#FFFFFF" transform="translate(31,104)"/>
<path d="M0 0 C17.16 0 34.32 0 52 0 C52 3.63 52 7.26 52 11 C55.3 11 58.6 11 62 11 C62 7.37 62 3.74 62 0 C75.86 0 89.72 0 104 0 C104 6.93 104 13.86 104 21 C93.77 21 83.54 21 73 21 C73 24.63 73 28.26 73 32 C79.93 32 86.86 32 94 32 C94 35.3 94 38.6 94 42 C87.07 42 80.14 42 73 42 C73 45.63 73 49.26 73 53 C69.37 53 65.74 53 62 53 C62 49.37 62 45.74 62 42 C58.7 42 55.4 42 52 42 C52 35.07 52 28.14 52 21 C45.07 21 38.14 21 31 21 C31 24.63 31 28.26 31 32 C27.37 32 23.74 32 20 32 C20 35.3 20 38.6 20 42 C16.7 42 13.4 42 10 42 C10 45.63 10 49.26 10 53 C6.7 53 3.4 53 0 53 C0 35.51 0 18.02 0 0 Z " fill="#000000" transform="translate(0,83)"/>
<path d="M0 0 C10.23 0 20.46 0 31 0 C31 3.63 31 7.26 31 11 C34.63 11 38.26 11 42 11 C42 7.37 42 3.74 42 0 C45.3 0 48.6 0 52 0 C52 3.63 52 7.26 52 11 C58.93 11 65.86 11 73 11 C73 17.93 73 24.86 73 32 C69.7 32 66.4 32 63 32 C63 35.3 63 38.6 63 42 C56.07 42 49.14 42 42 42 C42 48.93 42 55.86 42 63 C38.37 63 34.74 63 31 63 C31 66.63 31 70.26 31 74 C24.07 74 17.14 74 10 74 C10 60.14 10 46.28 10 32 C16.93 32 23.86 32 31 32 C31 28.37 31 24.74 31 21 C27.7 21 24.4 21 21 21 C21 17.7 21 14.4 21 11 C14.07 11 7.14 11 0 11 C0 7.37 0 3.74 0 0 Z " fill="#000000" transform="translate(94,125)"/>
<path d="M0 0 C24.09 0 48.18 0 73 0 C73 24.42 73 48.84 73 74 C48.91 74 24.82 74 0 74 C0 49.58 0 25.16 0 0 Z M10 11 C10 28.16 10 45.32 10 63 C27.16 63 44.32 63 62 63 C62 45.84 62 28.68 62 11 C44.84 11 27.68 11 10 11 Z " fill="#000000" transform="translate(0,146)"/>
<path d="M0 0 C24.42 0 48.84 0 74 0 C74 24.09 74 48.18 74 73 C49.58 73 25.16 73 0 73 C0 48.91 0 24.82 0 0 Z M11 10 C11 27.16 11 44.32 11 62 C28.16 62 45.32 62 63 62 C63 44.84 63 27.68 63 10 C45.84 10 28.68 10 11 10 Z " fill="#000000" transform="translate(146,0)"/>
<path d="M0 0 C24.09 0 48.18 0 73 0 C73 24.09 73 48.18 73 73 C48.91 73 24.82 73 0 73 C0 48.91 0 24.82 0 0 Z M10 10 C10 27.16 10 44.32 10 62 C27.16 62 44.32 62 62 62 C62 44.84 62 27.68 62 10 C44.84 10 27.68 10 10 10 Z " fill="#000000" transform="translate(0,0)"/>
<path d="M0 0 C3.3 0 6.6 0 10 0 C10 3.3 10 6.6 10 10 C13.63 10 17.26 10 21 10 C21 23.86 21 37.72 21 52 C24.3 52 27.6 52 31 52 C31 55.63 31 59.26 31 63 C27.7 63 24.4 63 21 63 C21 66.3 21 69.6 21 73 C17.37 73 13.74 73 10 73 C10 66.07 10 59.14 10 52 C3.07 52 -3.86 52 -11 52 C-11 45.07 -11 38.14 -11 31 C-14.3 31 -17.6 31 -21 31 C-21 34.63 -21 38.26 -21 42 C-24.63 42 -28.26 42 -32 42 C-32 35.07 -32 28.14 -32 21 C-25.07 21 -18.14 21 -11 21 C-11 17.37 -11 13.74 -11 10 C-7.37 10 -3.74 10 0 10 C0 6.7 0 3.4 0 0 Z " fill="#000000" transform="translate(115,31)"/>
<path d="M0 0 C13.86 0 27.72 0 42 0 C42 3.63 42 7.26 42 11 C35.07 11 28.14 11 21 11 C21 17.93 21 24.86 21 32 C14.07 32 7.14 32 0 32 C0 35.3 0 38.6 0 42 C-6.93 42 -13.86 42 -21 42 C-21 38.7 -21 35.4 -21 32 C-17.7 32 -14.4 32 -11 32 C-11 25.07 -11 18.14 -11 11 C-7.37 11 -3.74 11 0 11 C0 7.37 0 3.74 0 0 Z " fill="#FFFFFF" transform="translate(178,125)"/>
<path d="M0 0 C3.63 0 7.26 0 11 0 C11 3.3 11 6.6 11 10 C14.3 10 17.6 10 21 10 C21 13.63 21 17.26 21 21 C24.63 21 28.26 21 32 21 C32 24.3 32 27.6 32 31 C18.14 31 4.28 31 -10 31 C-10 34.63 -10 38.26 -10 42 C-13.63 42 -17.26 42 -21 42 C-21 38.37 -21 34.74 -21 31 C-24.3 31 -27.6 31 -31 31 C-31 27.7 -31 24.4 -31 21 C-27.7 21 -24.4 21 -21 21 C-21 17.37 -21 13.74 -21 10 C-14.07 10 -7.14 10 0 10 C0 6.7 0 3.4 0 0 Z " fill="#000000" transform="translate(188,94)"/>
<path d="M0 0 C3.63 0 7.26 0 11 0 C11 10.56 11 21.12 11 32 C14.3 32 17.6 32 21 32 C21 35.3 21 38.6 21 42 C27.93 42 34.86 42 42 42 C42 45.63 42 49.26 42 53 C28.14 53 14.28 53 0 53 C0 35.51 0 18.02 0 0 Z " fill="#000000" transform="translate(83,167)"/>
<path d="M0 0 C10.56 0 21.12 0 32 0 C32 10.56 32 21.12 32 32 C21.44 32 10.88 32 0 32 C0 21.44 0 10.88 0 0 Z " fill="#000000" transform="translate(20,167)"/>
<path d="M0 0 C10.56 0 21.12 0 32 0 C32 10.56 32 21.12 32 32 C21.44 32 10.88 32 0 32 C0 21.44 0 10.88 0 0 Z " fill="#000000" transform="translate(167,20)"/>
<path d="M0 0 C10.56 0 21.12 0 32 0 C32 10.56 32 21.12 32 32 C21.44 32 10.88 32 0 32 C0 21.44 0 10.88 0 0 Z " fill="#000000" transform="translate(20,20)"/>
<path d="M0 0 C6.93 0 13.86 0 21 0 C21 10.23 21 20.46 21 31 C17.37 31 13.74 31 10 31 C10 34.63 10 38.26 10 42 C6.7 42 3.4 42 0 42 C0 38.37 0 34.74 0 31 C-6.93 31 -13.86 31 -21 31 C-21 27.7 -21 24.4 -21 21 C-14.07 21 -7.14 21 0 21 C0 14.07 0 7.14 0 0 Z " fill="#000000" transform="translate(199,136)"/>
<path d="M0 0 C13.86 0 27.72 0 42 0 C42 6.93 42 13.86 42 21 C31.77 21 21.54 21 11 21 C11 17.7 11 14.4 11 11 C7.37 11 3.74 11 0 11 C0 7.37 0 3.74 0 0 Z " fill="#000000" transform="translate(62,83)"/>
<path d="M0 0 C6.93 0 13.86 0 21 0 C21 3.3 21 6.6 21 10 C24.3 10 27.6 10 31 10 C31 13.63 31 17.26 31 21 C24.07 21 17.14 21 10 21 C10 17.37 10 13.74 10 10 C6.7 10 3.4 10 0 10 C0 6.7 0 3.4 0 0 Z " fill="#FFFFFF" transform="translate(94,136)"/>
<path d="M0 0 C3.3 0 6.6 0 10 0 C10 3.63 10 7.26 10 11 C13.63 11 17.26 11 21 11 C21 17.93 21 24.86 21 32 C17.37 32 13.74 32 10 32 C10 28.37 10 24.74 10 21 C6.7 21 3.4 21 0 21 C0 14.07 0 7.14 0 0 Z " fill="#000000" transform="translate(199,83)"/>
<path d="M0 0 C6.93 0 13.86 0 21 0 C21 6.93 21 13.86 21 21 C14.07 21 7.14 21 0 21 C0 14.07 0 7.14 0 0 Z " fill="#FFFFFF" transform="translate(104,83)"/>
<path d="M0 0 C6.93 0 13.86 0 21 0 C21 6.93 21 13.86 21 21 C17.37 21 13.74 21 10 21 C10 17.7 10 14.4 10 11 C6.7 11 3.4 11 0 11 C0 7.37 0 3.74 0 0 Z " fill="#000000" transform="translate(157,167)"/>
<path d="M0 0 C3.63 0 7.26 0 11 0 C11 3.3 11 6.6 11 10 C14.3 10 17.6 10 21 10 C21 13.63 21 17.26 21 21 C14.07 21 7.14 21 0 21 C0 14.07 0 7.14 0 0 Z " fill="#000000" transform="translate(83,136)"/>
<path d="M0 0 C6.93 0 13.86 0 21 0 C21 3.63 21 7.26 21 11 C14.07 11 7.14 11 0 11 C0 7.37 0 3.74 0 0 Z " fill="#000000" transform="translate(104,104)"/>
<path d="M0 0 C6.93 0 13.86 0 21 0 C21 3.3 21 6.6 21 10 C14.07 10 7.14 10 0 10 C0 6.7 0 3.4 0 0 Z " fill="#000000" transform="translate(178,199)"/>
<path d="M0 0 C3.3 0 6.6 0 10 0 C10 6.93 10 13.86 10 21 C6.7 21 3.4 21 0 21 C0 14.07 0 7.14 0 0 Z " fill="#FFFFFF" transform="translate(115,167)"/>
<path d="M0 0 C6.93 0 13.86 0 21 0 C21 3.3 21 6.6 21 10 C14.07 10 7.14 10 0 10 C0 6.7 0 3.4 0 0 Z " fill="#000000" transform="translate(178,157)"/>
<path d="M0 0 C6.93 0 13.86 0 21 0 C21 3.3 21 6.6 21 10 C14.07 10 7.14 10 0 10 C0 6.7 0 3.4 0 0 Z " fill="#000000" transform="translate(73,115)"/>
<path d="M0 0 C3.3 0 6.6 0 10 0 C10 6.93 10 13.86 10 21 C6.7 21 3.4 21 0 21 C0 14.07 0 7.14 0 0 Z " fill="#000000" transform="translate(157,83)"/>
<path d="M0 0 C3.3 0 6.6 0 10 0 C10 6.93 10 13.86 10 21 C6.7 21 3.4 21 0 21 C0 14.07 0 7.14 0 0 Z " fill="#FFFFFF" transform="translate(115,52)"/>
<path d="M0 0 C3.63 0 7.26 0 11 0 C11 3.63 11 7.26 11 11 C7.37 11 3.74 11 0 11 C0 7.37 0 3.74 0 0 Z " fill="#FFFFFF" transform="translate(209,146)"/>
<path d="M0 0 C3.63 0 7.26 0 11 0 C11 3.63 11 7.26 11 11 C7.37 11 3.74 11 0 11 C0 7.37 0 3.74 0 0 Z " fill="#000000" transform="translate(62,125)"/>
<path d="M0 0 C3.63 0 7.26 0 11 0 C11 3.63 11 7.26 11 11 C7.37 11 3.74 11 0 11 C0 7.37 0 3.74 0 0 Z " fill="#FFFFFF" transform="translate(209,104)"/>
<path d="M0 0 C3.3 0 6.6 0 10 0 C10 3.63 10 7.26 10 11 C6.7 11 3.4 11 0 11 C0 7.37 0 3.74 0 0 Z " fill="#000000" transform="translate(199,209)"/>
<path d="M0 0 C3.3 0 6.6 0 10 0 C10 3.63 10 7.26 10 11 C6.7 11 3.4 11 0 11 C0 7.37 0 3.74 0 0 Z " fill="#000000" transform="translate(157,209)"/>
<path d="M0 0 C3.3 0 6.6 0 10 0 C10 3.63 10 7.26 10 11 C6.7 11 3.4 11 0 11 C0 7.37 0 3.74 0 0 Z " fill="#000000" transform="translate(136,209)"/>
<path d="M0 0 C3.3 0 6.6 0 10 0 C10 3.63 10 7.26 10 11 C6.7 11 3.4 11 0 11 C0 7.37 0 3.74 0 0 Z " fill="#000000" transform="translate(136,188)"/>
<path d="M0 0 C3.3 0 6.6 0 10 0 C10 3.63 10 7.26 10 11 C6.7 11 3.4 11 0 11 C0 7.37 0 3.74 0 0 Z " fill="#000000" transform="translate(199,167)"/>
<path d="M0 0 C3.63 0 7.26 0 11 0 C11 3.3 11 6.6 11 10 C7.37 10 3.74 10 0 10 C0 6.7 0 3.4 0 0 Z " fill="#000000" transform="translate(209,157)"/>
<path d="M0 0 C3.3 0 6.6 0 10 0 C10 3.63 10 7.26 10 11 C6.7 11 3.4 11 0 11 C0 7.37 0 3.74 0 0 Z " fill="#FFFFFF" transform="translate(136,146)"/>
<path d="M0 0 C3.3 0 6.6 0 10 0 C10 3.63 10 7.26 10 11 C6.7 11 3.4 11 0 11 C0 7.37 0 3.74 0 0 Z " fill="#000000" transform="translate(31,125)"/>
<path d="M0 0 C3.3 0 6.6 0 10 0 C10 3.63 10 7.26 10 11 C6.7 11 3.4 11 0 11 C0 7.37 0 3.74 0 0 Z " fill="#000000" transform="translate(0,125)"/>
<path d="M0 0 C3.63 0 7.26 0 11 0 C11 3.3 11 6.6 11 10 C7.37 10 3.74 10 0 10 C0 6.7 0 3.4 0 0 Z " fill="#FFFFFF" transform="translate(62,115)"/>
<path d="M0 0 C3.3 0 6.6 0 10 0 C10 3.63 10 7.26 10 11 C6.7 11 3.4 11 0 11 C0 7.37 0 3.74 0 0 Z " fill="#000000" transform="translate(136,104)"/>
<path d="M0 0 C3.63 0 7.26 0 11 0 C11 3.3 11 6.6 11 10 C7.37 10 3.74 10 0 10 C0 6.7 0 3.4 0 0 Z " fill="#000000" transform="translate(209,94)"/>
<path d="M0 0 C3.63 0 7.26 0 11 0 C11 3.3 11 6.6 11 10 C7.37 10 3.74 10 0 10 C0 6.7 0 3.4 0 0 Z " fill="#FFFFFF" transform="translate(62,94)"/>
<path d="M0 0 C3.3 0 6.6 0 10 0 C10 3.63 10 7.26 10 11 C6.7 11 3.4 11 0 11 C0 7.37 0 3.74 0 0 Z " fill="#000000" transform="translate(178,83)"/>
<path d="M0 0 C3.63 0 7.26 0 11 0 C11 3.3 11 6.6 11 10 C7.37 10 3.74 10 0 10 C0 6.7 0 3.4 0 0 Z " fill="#000000" transform="translate(83,31)"/>
<path d="M0 0 C3.3 0 6.6 0 10 0 C10 3.63 10 7.26 10 11 C6.7 11 3.4 11 0 11 C0 7.37 0 3.74 0 0 Z " fill="#000000" transform="translate(94,20)"/>
<path d="M0 0 C3.63 0 7.26 0 11 0 C11 3.3 11 6.6 11 10 C7.37 10 3.74 10 0 10 C0 6.7 0 3.4 0 0 Z " fill="#000000" transform="translate(83,10)"/>
<path d="M0 0 C3.63 0 7.26 0 11 0 C11 3.3 11 6.6 11 10 C7.37 10 3.74 10 0 10 C0 6.7 0 3.4 0 0 Z " fill="#000000" transform="translate(125,0)"/>
<path d="M0 0 C3.3 0 6.6 0 10 0 C10 3.3 10 6.6 10 10 C6.7 10 3.4 10 0 10 C0 6.7 0 3.4 0 0 Z " fill="#FFFFFF" transform="translate(199,157)"/>
<path d="M0 0 C3.3 0 6.6 0 10 0 C10 3.3 10 6.6 10 10 C6.7 10 3.4 10 0 10 C0 6.7 0 3.4 0 0 Z " fill="#000000" transform="translate(178,136)"/>
<path d="M0 0 C3.3 0 6.6 0 10 0 C10 3.3 10 6.6 10 10 C6.7 10 3.4 10 0 10 C0 6.7 0 3.4 0 0 Z " fill="#FFFFFF" transform="translate(0,115)"/>
<path d="M0 0 C3.3 0 6.6 0 10 0 C10 3.3 10 6.6 10 10 C6.7 10 3.4 10 0 10 C0 6.7 0 3.4 0 0 Z " fill="#FFFFFF" transform="translate(199,94)"/>
<path d="M0 0 C3.3 0 6.6 0 10 0 C10 3.3 10 6.6 10 10 C6.7 10 3.4 10 0 10 C0 6.7 0 3.4 0 0 Z " fill="#000000" transform="translate(115,10)"/>
<path d="M0 0 C3.3 0 6.6 0 10 0 C10 3.3 10 6.6 10 10 C6.7 10 3.4 10 0 10 C0 6.7 0 3.4 0 0 Z " fill="#000000" transform="translate(94,0)"/>
</svg>
